<?xml version="1.0" encoding="utf-8"?>
<!-- Generator: Adobe Illustrator 24.1.2, SVG Export Plug-In . SVG Version: 6.00 Build 0)  -->
<svg version="1.1" id="레이어_1" xmlns="http://www.w3.org/2000/svg" xmlns:xlink="http://www.w3.org/1999/xlink" x="0px"
	 y="0px" viewBox="0 0 994 597.8" style="enable-background:new 0 0 994 597.8;" xml:space="preserve">
<style type="text/css">
	.st0{fill:#E5DFDF;}
	.st1{fill:#FFFFFF;}
	.st2{fill:#F44040;}
	.st3{fill:#FCFCFC;}
	.st4{fill:#EF8943;}
</style>
<g>
	<g>
		<g>
			<g>
				<g>
					<path d="M886.2,1.2c85.1-6.3,115.7,19.9,105.7,16.2c-15.2-5.7-176.7,67.4-182,80c-17.1,41-50.5,86.7-114.3,128.6
						c-46.3,30.4-95.2,83.1-102.1,90.6c-0.5,0.6-0.8,0.9-0.8,0.9l-0.6-0.1c-0.5-5.2-2-10.2-4.3-15l0,0c-2.2-4.6-5.1-8.9-8.4-12.7
						c24.4-4.6,45.6-19.4,65.4-34.4c48.6-36.8,94.2-77.4,136.4-121.3c9.1-17.1,17.4-33,26.4-50.2c17.1-6,33.8-13.4,49.8-22.1
						c10.3-5.6,21.1-12.9,23.7-24.3c1-4.4,0.5-9-0.8-13.3c-1.5-4.9-4.2-9.4-7-13.6c-1.5-2.1-3-4.2-4.6-6.3c-0.3-0.4-0.6-0.7-0.9-0.9
						L867.8,3C874.3,2.2,880.5,1.7,886.2,1.2z"/>
				</g>
				<g>
					<path class="st0" d="M880.4,24.2c1.4,4.3,1.8,8.9,0.8,13.3c-2.5,11.4-13.4,18.7-23.7,24.3c-16,8.7-32.6,16.1-49.8,22.1
						c-9.1,17.1-17.4,33-26.4,50.2c-42.2,43.9-87.9,84.5-136.4,121.3c-19.8,15-41,29.7-65.4,34.4c3.3,3.8,6.2,8.1,8.4,12.7
						c-8.2-6.2-16.1-12.8-23.7-19.5c-26.8-23-52.9-46.8-78.3-71.2c0.4,0,0.8,0,1.2,0c48.8,0.8,194.3-92.4,221-164.8
						C751.4,25,799.8,12.9,847.6,5.7c5-0.7,9.9-1.4,14.9-2c2.3-0.3,3.9-1.1,5.3-0.1c0.3,0.2,0.6,0.5,0.9,0.9c1.6,2,3.1,4.1,4.6,6.3
						C876.2,14.9,878.8,19.3,880.4,24.2z"/>
				</g>
				<g>
					<path class="st1" d="M669.9,384.2l-21,27.1c0,0,0.4,0.6,0.9,1.7c-19.7-20.2-41.3-38.9-63.2-56.4c11.9,11.7,21.2,25.9,27.3,41.5
						c-15.8-9.9-31.8-19.5-48-28.7c9.4,9.4,18.4,19,27.7,28.4c6.5,6.5,13.1,13.1,20.8,18c1.8,1.2,3.7,2.2,5.6,3.2
						c10.7,5.4,22.5,7.8,34.7,9.1c0,3.3-1.5,5.8-5.9,5.8c-13.3,0-35.2-8.7-35.2-8.7h-21.4l-31-40.9c0-7.6-54.3-13.3-53.3-20
						c0.1-0.7-0.3-0.7-1.2-0.3c-3-3.2-6.6-5.9-10.4-8c-4.4-2.4-9.2-4.1-14.1-5c-2.8-1.9-5.6-3.9-8.3-6
						c-28.6-21.1-54.1-46.2-75.6-74.4c2.6-2.3,3.9-3.6,3.9-3.6s-11.4-8.6-23.8-50.5c-2.7-9.2-10.1-14.6-19.7-17.6
						c1.5-3,2.4-6.2,2.8-9.5c0.7-5.4-0.2-11-2.3-16c1-0.5,1.9-1.1,3-1.7c60.2-35.8,64.7,38.1,123.6,40
						c25.5,24.5,51.6,48.2,78.3,71.2c7.7,6.6,15.6,13.2,23.7,19.5l0,0c2.2,4.7,3.8,9.8,4.3,15l0.6,0.1c4.8,8.6,9.5,21,9.5,21
						L669.9,384.2z M402.3,176.5c0-4.2-7-7.6-15.7-7.6h0c-8.7,0-15.7,3.4-15.7,7.6c0,4.2,7,7.6,15.7,7.6S402.3,180.7,402.3,176.5z"
						/>
				</g>
				<g>
					<path class="st2" d="M654.5,424.6c0.2,1.2,0.4,2.3,0.4,3.3c-12.1-1.2-24-3.7-34.7-9.1c-1.9-1-3.8-2-5.6-3.2
						c-7.8-4.9-14.3-11.5-20.8-18c-9.4-9.4-18.4-19-27.7-28.4c16.2,9.2,32.2,18.8,48,28.7v0h0v0h0v0
						C627.8,406.6,641.2,415.5,654.5,424.6z"/>
				</g>
				<g>
					<path class="st2" d="M649.9,413c1.3,2.5,3.7,7.2,4.6,11.6c-13.3-9.1-26.8-18-40.4-26.5v0h0v0h0v0
						c-6.1-15.5-15.5-29.8-27.3-41.5C608.6,374,630.2,392.8,649.9,413C649.9,413,649.9,413,649.9,413z"/>
				</g>
				<g>
					<path d="M496.4,355.9c3.8,2.1,7.4,4.8,10.4,8c-3.1,1.6-11.5,9.4-16,7.9c-38.1,41-319.8,109.3-325.8,114.3
						C82.2,555.7,0.3,597.6,0.3,597.6c1.8-25.8,30-75.4,62.1-121.1c0.4-0.6,0.8-1.1,1.2-1.7c0,0,0,0,0,0.1c-3.1,7.4-5.3,16.4-1,23.2
						c4.6,7.3,14.5,8.9,23.1,8.7c33-0.6,65.5-16.9,85.7-43c0.2-0.2,0.4-0.5,0.5-0.7h0c6.9,0.8,14.4-0.1,21.2-1.3
						c79.3-13.5,157-36.6,230.9-68.6c23.3-10.1,47.6-20.9,69.1-35C494.2,357.4,495.3,356.7,496.4,355.9z"/>
				</g>
				<g>
					<path class="st0" d="M482.3,351c5,0.8,9.8,2.5,14.1,5c-1.1,0.8-2.2,1.5-3.4,2.3c-21.5,14.1-45.8,24.9-69.1,35
						c-73.8,32-151.5,55.1-230.9,68.6c-6.8,1.2-14.3,2-21.2,1.3h0c-0.2,0.2-0.3,0.5-0.5,0.7c-20.2,26.1-52.7,42.4-85.7,43
						c-8.6,0.2-18.5-1.4-23.1-8.7c-4.3-6.8-2.1-15.8,1-23.2c0,0,0,0,0-0.1v0c0,0,0,0,0,0c36.2-51.3,77-97.2,90-98.2
						c130.4-10,224.7-88.1,244.7-105.9c21.6,28.2,47.1,53.3,75.6,74.4C476.7,347,479.5,349,482.3,351z"/>
				</g>
				<g>
					<path class="st3" d="M386.5,168.9c8.7,0,15.7,3.4,15.7,7.6c0,4.2-7,7.6-15.7,7.6c3.9,0,7.1-3.2,7.1-7.1s-3.2-7.1-7.1-7.1
						L386.5,168.9z"/>
				</g>
				<g>
					<circle cx="386.5" cy="177" r="7.1"/>
				</g>
				<g>
					<path class="st3" d="M386.5,168.9l0,1c-3.9,0-7.1,3.2-7.1,7.1s3.2,7.1,7.1,7.1c-8.7,0-15.7-3.4-15.7-7.6
						C370.8,172.3,377.9,168.9,386.5,168.9L386.5,168.9z"/>
				</g>
				<g>
					<path class="st4" d="M359.3,173.4c2.1,5,3,10.6,2.3,16c-0.4,3.3-1.4,6.5-2.8,9.5c-34.5-10.8-98.1,8.6-82-5.5
						C315.5,159.3,321.9,193.8,359.3,173.4z"/>
				</g>
			</g>
		</g>
	</g>
</g>
</svg>
